<svg height="512pt" viewBox="0 -14 512 512" width="512pt" xmlns="http://www.w3.org/2000/svg"><path d="m432 132.257812h-352c-26.398438 0-48 21.597657-48 48v240h448v-240c0-26.402343-21.601562-48-48-48zm0 0" fill="#b0b4b9"/><path d="m423.359375 195.9375-69.597656 112.320312h-195.523438l-69.597656-112.320312 37.121094-63.679688h260.476562zm0 0" fill="#9da3aa"/><path d="m64 164.257812h384v192h-384zm0 0" fill="#40a2e7"/><path d="m423.359375 195.9375-55.359375 89.4375v70.882812h-224v-70.882812l-55.359375-89.4375 18.558594-31.679688h297.601562zm0 0" fill="#168de2"/><path d="m32 356.257812h448v64h-448zm0 0" fill="#acabb1"/><path d="m464 484.257812h-416c-26.464844 0-48-21.539062-48-48v-48h512v48c0 26.476563-21.535156 48-48 48zm0 0" fill="#e4edfb"/><path d="m176 244.257812h160v112h-160zm0 0" fill="#e76e54"/><path d="m464 452.257812h-416c-26.464844 0-48-21.539062-48-48v32c0 26.460938 21.535156 48 48 48h416c26.464844 0 48-21.539062 48-48v-32c0 26.476563-21.535156 48-48 48zm0 0" fill="#d7e1f2"/><path d="m176 244.257812h160v64h-160zm0 0" fill="#dd523c"/><path d="m272 0v116.273438c0 8.832031-7.167969 16-16 16s-16-7.167969-16-16v-116.273438l-114.078125 195.457031 50.078125 80.800781h160l50.078125-80.800781zm0 0" fill="#ffcb5a"/><path d="m240 164.257812h32v32h-32zm0 0" fill="#fff"/></svg>